<?xml version="1.0" encoding="UTF-8" standalone="no" ?>
<!DOCTYPE svg PUBLIC "-//W3C//DTD SVG 1.1//EN" "http://www.w3.org/Graphics/SVG/1.1/DTD/svg11.dtd">
<svg xmlns="http://www.w3.org/2000/svg" xmlns:xlink="http://www.w3.org/1999/xlink" version="1.1" width="24" height="24" viewBox="0 0 640 640" xml:space="preserve">
<desc>Created with Fabric.js 4.6.0</desc>
<defs>
</defs>
<g transform="matrix(26.67 0 0 26.67 320 320)" id="BcD18MOr1VMcKdS8h_XNg"  >
<g style="" vector-effect="non-scaling-stroke"   >
		<g transform="matrix(1 0 0 1 0 0)" id="LNvlFfcKrapOiRJ5WdvjX"  >
<path style="stroke: none; stroke-width: 1; stroke-dasharray: none; stroke-linecap: butt; stroke-dashoffset: 0; stroke-linejoin: miter; stroke-miterlimit: 4; fill: none; fill-rule: nonzero; opacity: 1;" vector-effect="non-scaling-stroke"  transform=" translate(-12, -12)" d="M 0 0 L 24 0 L 24 24 L 0 24 L 0 0 z" stroke-linecap="round" />
</g>
		<g transform="matrix(1 0 0 1 0 0)" id="r61njyrrn-qGkU9NMk917"  >
<path style="stroke: none; stroke-width: 1; stroke-dasharray: none; stroke-linecap: butt; stroke-dashoffset: 0; stroke-linejoin: miter; stroke-miterlimit: 4; fill: rgb(128,128,128); fill-rule: nonzero; opacity: 1;" vector-effect="non-scaling-stroke"  transform=" translate(-12, -12)" d="M 16 9 L 16 19 L 8 19 L 8 9 L 16 9 M 14.5 3 L 9.5 3 L 8.5 4 L 5 4 L 5 6 L 19 6 L 19 4 L 15.5 4 L 14.5 3 z M 18 7 L 6 7 L 6 19 C 6 20.1 6.9 21 8 21 L 16 21 C 17.1 21 18 20.1 18 19 L 18 7 z" stroke-linecap="round" />
</g>
</g>
</g>
<g transform="matrix(26.67 0 0 39.73 369.33 372.27)" id="0iba-_rfLlUKHlbXfsADJ"  >
<path style="stroke: rgb(128,128,128); stroke-width: 2; stroke-dasharray: none; stroke-linecap: butt; stroke-dashoffset: 0; stroke-linejoin: miter; stroke-miterlimit: 4; fill: rgb(255,255,255); fill-opacity: 0; fill-rule: nonzero; opacity: 1;" vector-effect="non-scaling-stroke"  transform=" translate(0, 0)" d="M 0 -2.88235 C 0 -2.88235 0 1.4411799999999997 0 2.88236" stroke-linecap="round" />
</g>
<g transform="matrix(26.67 0 0 39.73 268.42 375.6)" id="hWq2DAfFPr0hvPndSm2TP"  >
<path style="stroke: rgb(128,128,128); stroke-width: 2; stroke-dasharray: none; stroke-linecap: butt; stroke-dashoffset: 0; stroke-linejoin: miter; stroke-miterlimit: 4; fill: rgb(255,255,255); fill-opacity: 0; fill-rule: nonzero; opacity: 1;" vector-effect="non-scaling-stroke"  transform=" translate(0, 0)" d="M 0 -2.88235 C 0 -2.88235 0 1.4411799999999997 0 2.88236" stroke-linecap="round" />
</g>
</svg>